<?xml version="1.0" encoding="UTF-8"?>
<svg width="43px" height="13px" viewBox="0 0 43 13" version="1.1" xmlns="http://www.w3.org/2000/svg" xmlns:xlink="http://www.w3.org/1999/xlink">
    <!-- Generator: Sketch 57.1 (83088) - https://sketch.com -->
    <title>Group 5 Copy 4</title>
    <desc>Created with Sketch.</desc>
    <g id="Page-1" stroke="none" stroke-width="1" fill="none" fill-rule="evenodd">
        <g id="Onze-producten" transform="translate(-684.000000, -1753.000000)" fill="#797979" fill-rule="nonzero">
            <g id="Group-8" transform="translate(193.000000, 855.000000)">
                <g id="Group-6" transform="translate(1.000000, 878.000000)">
                    <g id="Group-5-Copy-4" transform="translate(490.000000, 20.000000)">
                        <path d="M6.94591393,4.34181949 C6.94591393,3.13360624 5.93797503,2.16060715 4.705466,2.16060715 L3.5944023,2.16060715 L3.5944023,6.5037464 L4.705466,6.5037464 C5.93797503,6.5037464 6.94591393,5.53006615 6.94591393,4.34181949 M12,13 L7.92144975,13 L4.6834372,8.66656733 L3.5944023,8.66656733 L3.5944023,12.990634 L0,12.990634 L0,0 L5.14917631,0 C8.11763407,0 10.5405811,1.94667933 10.5405811,4.34181949 C10.5405811,5.80257401 9.61170749,7.10729958 8.19806788,7.90562287 L12,13" id="Shape"></path>
                        <path d="M16.2567255,5.37177684 C15.3516592,5.37177684 14.581793,6.54601409 14.581793,7.99955806 C14.581793,9.45310202 15.3516592,10.6288258 16.2567255,10.6288258 C17.1827959,10.6288258 17.9513993,9.45306185 17.9513993,7.99955806 C17.9513993,6.54597392 17.1827959,5.37177684 16.2567255,5.37177684 L16.2567255,5.37177684 Z M21.5318875,7.99955806 C21.5318875,10.7763939 19.1660116,13 16.2567255,13 C13.3484076,13 11,10.7763939 11,7.99955806 C11,5.22481137 13.3484076,3 16.2567255,3 C19.1660116,3 21.5318875,5.22481137 21.5318875,7.99955806 L21.5318875,7.99955806 Z M29.5744427,3.20333304 L25.6264897,6.97100063 L25.6264897,3.19087834 L22.1999747,3.19087834 L22.1999747,12.798033 L25.6264897,12.798033 L25.6264897,8.90099718 L29.7481572,12.798033 L34.0610074,12.798033 L28.8233496,7.79811331 L33.1616235,3.65881351 L33.1616235,9.36009353 C33.1616235,11.2530072 34.3542637,12.9999196 37.35771,12.9999196 C38.7835409,12.9999196 40.0919767,12.2280496 40.7279055,11.5296623 L42.2686061,12.7979928 L43,12.7979928 L43,3.20333304 L39.573443,3.20333304 L39.573443,9.41537633 C39.1875839,10.0581996 38.6499403,10.4623747 37.8189983,10.4623747 C36.9759338,10.4623747 36.5891065,9.98531952 36.5891065,8.45945794 L36.5891065,3.20333304 L29.5744427,3.20333304 Z" id="Shape"></path>
                    </g>
                </g>
            </g>
        </g>
    </g>
</svg>