<?xml version="1.0" encoding="UTF-8"?>
<svg width="49px" height="21px" viewBox="0 0 49 21" version="1.1" xmlns="http://www.w3.org/2000/svg" xmlns:xlink="http://www.w3.org/1999/xlink">
    <!-- Generator: Sketch 57.1 (83088) - https://sketch.com -->
    <title>Group 14</title>
    <desc>Created with Sketch.</desc>
    <g id="Page-1" stroke="none" stroke-width="1" fill="none" fill-rule="evenodd">
        <g id="Onze-producten" transform="translate(-604.000000, -1749.000000)">
            <g id="Group-8" transform="translate(193.000000, 855.000000)">
                <g id="Group-6" transform="translate(1.000000, 878.000000)">
                    <g id="Group-14" transform="translate(410.000000, 16.000000)">
                        <g id="Group-2" transform="translate(0.000000, 9.000000)">
                            <polygon id="Fill-1" fill="#FFFFFF" points="14.5670515 4.18810588 14.5670515 8.32881176 11.2246029 6.01316471"></polygon>
                            <polygon id="Fill-2" fill="#FFFFFF" points="7.89948456 4.18810588 7.89948456 8.32881176 11.2415728 6.01316471"></polygon>
                            <polygon id="Fill-3" fill="#FFFFFF" points="11.2421853 7.10542736e-15 6.92117794 2.38552941 11.2421853 2.37388235"></polygon>
                            <polygon id="Fill-4" fill="#FFFFFF" points="11.2386184 7.10542736e-15 11.2386184 2.37388235 15.5581846 2.38552941"></polygon>
                            <polygon id="Fill-5" fill="#FFFFFF" points="11.2420412 6.01344706 6.93076176 8.97391765 11.2420412 8.97391765"></polygon>
                            <polygon id="Fill-6" fill="#FFFFFF" points="11.2385463 6.01344706 15.553789 8.97391765 11.2385463 8.97391765"></polygon>
                            <polygon id="Fill-7" fill="#FFFFFF" points="6.93076176 8.97384706 11.2387985 11.8612588 11.2387985 8.97384706"></polygon>
                            <polygon id="Fill-8" fill="#FFFFFF" points="11.2386184 8.97384706 11.2386184 11.8612588 15.5405301 8.97384706"></polygon>
                            <polygon id="Fill-9" fill="#FFFFFF" points="6.93065368 2.37462353 11.251661 2.37462353 11.251661 4.72591765"></polygon>
                            <polygon id="Fill-10" fill="#FFFFFF" points="15.5627603 2.37462353 11.2428338 2.37462353 11.2428338 4.72591765"></polygon>
                            <polygon id="Fill-11" fill="#797979" points="15.5529243 8.98605882 15.5529243 2.37476471 11.2416449 4.72605882 6.93072574 2.37476471 6.93072574 8.98288235 7.89955662 9.62664706 7.89955662 4.18817647 11.2416449 5.997 14.5671596 4.18288235 14.5671596 9.62664706"></polygon>
                            <path d="M28.2603176,6.57818824 C28.6350235,6.43842353 28.9437956,6.21783529 29.1815897,5.92136471 C29.4773912,5.55642353 29.6272735,5.11912941 29.6272735,4.6236 C29.6272735,4.30136471 29.5692662,4.00383529 29.4564941,3.73877647 C29.3422809,3.46877647 29.1693397,3.23265882 28.9405529,3.03642353 C28.71645,2.84477647 28.4386632,2.69512941 28.1176412,2.59383529 C27.8023838,2.49571765 27.4384868,2.44489412 27.0317147,2.44489412 L24.2397956,2.44489412 L24.2397956,9.68548235 L25.2172735,9.68548235 L25.2172735,3.36465882 L27.0317147,3.36465882 C27.5541412,3.36465882 27.9576706,3.47583529 28.2358176,3.69077647 C28.4999132,3.90148235 28.6281779,4.20607059 28.6281779,4.6236 C28.6281779,5.04112941 28.4999132,5.34571765 28.2358176,5.55571765 C27.9587515,5.77207059 27.5541412,5.88395294 27.0317147,5.88395294 L25.8348176,5.88395294 L25.8348176,6.79383529 L27.2795971,6.79383529 L28.6523176,9.68548235 L29.7277956,9.68548235 L28.2603176,6.57818824 Z" id="Fill-12" fill="#797979"></path>
                            <polygon id="Fill-14" fill="#797979" points="30.4611382 2.44475294 30.4611382 3.37334118 32.6848735 3.37334118 32.6848735 9.68604706 33.6645132 9.68604706 33.6645132 3.37334118 35.8983368 3.37334118 35.8983368 2.44475294"></polygon>
                            <path d="M18.8198551,6.56269412 L19.8185904,3.99292941 L20.8378625,6.56445882 L18.8198551,6.56269412 Z M20.233289,2.44492941 L19.4092963,2.44492941 L16.573061,9.68622353 L17.605664,9.68622353 L18.4988331,7.41751765 L21.1866272,7.42951765 L22.0790757,9.68622353 L23.1015904,9.68622353 L20.233289,2.44492941 Z" id="Fill-16" fill="#797979"></path>
                            <path d="M5.469625,6.86632941 C5.37054412,6.63268235 5.22930882,6.41950588 5.04519853,6.23421176 C4.86613235,6.05421176 4.65139706,5.90209412 4.40279412,5.78138824 C4.15563235,5.6628 3.87856618,5.58515294 3.58852941,5.5488 L2.26300735,5.38715294 C2.11852941,5.36809412 1.97801471,5.33668235 1.84542647,5.29221176 C1.721125,5.24950588 1.61591912,5.19268235 1.52476471,5.11856471 C1.43613235,5.0448 1.36731618,4.9548 1.31183088,4.84256471 C1.25778676,4.73315294 1.231125,4.59409412 1.231125,4.42256471 C1.231125,4.23585882 1.26535294,4.08409412 1.33921324,3.95844706 C1.42208088,3.81585882 1.51575735,3.70115294 1.62708824,3.60515294 C1.77084559,3.48197647 1.94378676,3.39127059 2.14483088,3.33691765 C2.35488235,3.27868235 2.57754412,3.24938824 2.80669118,3.24938824 C3.09888971,3.24938824 3.37019118,3.29562353 3.61230882,3.38809412 C3.84325735,3.47385882 4.02268382,3.59703529 4.15202941,3.75515294 C4.24966912,3.86491765 4.32388971,3.97821176 4.37144853,4.09291765 C4.42333088,4.21291765 4.46224265,4.35127059 4.48277941,4.50444706 L4.51304412,4.69644706 L5.49124265,4.69644706 L5.47034559,4.45291765 C5.44800735,4.18115294 5.38315441,3.93727059 5.28047059,3.72727059 C5.17922794,3.52044706 5.04411765,3.32456471 4.88090441,3.14562353 C4.65968382,2.89609412 4.35739706,2.69385882 3.97728676,2.54315294 C3.60438235,2.39527059 3.21058088,2.32009412 2.80669118,2.32009412 C2.45144118,2.32009412 2.107,2.37585882 1.78201471,2.48703529 C1.44874265,2.59891765 1.15870588,2.76197647 0.921272059,2.97374118 C0.724551471,3.14703529 0.561338235,3.35068235 0.434154412,3.57727059 C0.300125,3.81303529 0.232029412,4.09715294 0.232029412,4.42256471 C0.232029412,4.71444706 0.28175,4.97668235 0.377588235,5.19903529 C0.476308824,5.42668235 0.616463235,5.62468235 0.792647059,5.78562353 C0.965227941,5.94938824 1.17275735,6.07927059 1.40766912,6.17315294 C1.63177206,6.26209412 1.88289706,6.32668235 2.15527941,6.36232941 L3.45990441,6.52432941 C3.64473529,6.54585882 3.81191176,6.59138824 3.95458824,6.65950588 C4.10050735,6.72974118 4.22048529,6.81268235 4.32172794,6.91256471 C4.41792647,7.00856471 4.49358824,7.11903529 4.54402941,7.24327059 C4.59483088,7.36291765 4.61969118,7.49032941 4.61969118,7.62232941 C4.61969118,7.80409412 4.58942647,7.96432941 4.52889706,8.09244706 C4.46404412,8.22550588 4.38117647,8.34091765 4.27849265,8.43585882 C4.11347794,8.58832941 3.90594853,8.70021176 3.66058824,8.7708 C3.40261765,8.84385882 3.12843382,8.88091765 2.84632353,8.88091765 C2.57754412,8.88091765 2.31705147,8.83891765 2.07457353,8.75491765 C1.83786029,8.67409412 1.63393382,8.55162353 1.47180147,8.39421176 C1.35830882,8.27915294 1.25886765,8.14009412 1.17491912,7.98056471 C1.09493382,7.82350588 1.04557353,7.65974118 1.02143382,7.47762353 L0.994411765,7.28138824 L-2.13162821e-14,7.28138824 L0.0234191176,7.5288 C0.0526029412,7.81609412 0.131867647,8.08891765 0.253647059,8.33985882 C0.373264706,8.58903529 0.530352941,8.81456471 0.719147059,9.01009412 C0.975316176,9.28009412 1.29129412,9.48232941 1.65879412,9.61468235 C2.01800735,9.74421176 2.41901471,9.81127059 2.84632353,9.81127059 C3.27435294,9.81127059 3.67572059,9.75127059 4.04322059,9.63656471 C4.41360294,9.51691765 4.73318382,9.33127059 4.99763971,9.08315294 C5.17922794,8.90844706 5.32911029,8.70338824 5.44296324,8.4768 C5.55933824,8.24209412 5.61986765,7.95409412 5.61986765,7.62232941 C5.61986765,7.35797647 5.56906618,7.10456471 5.469625,6.86632941" id="Fill-18" fill="#797979"></path>
                            <polygon id="Fill-20" fill="#797979" points="45.4784493 9.71089412 46.1287801 9.71089412 48.9869934 2.41348235 48.2408243 2.41348235 45.808839 8.67218824 43.3242507 2.41348235 37.8802066 2.41348235 37.8802066 3.07877647 40.2181551 3.07877647 40.2181551 9.71089412 40.9275743 9.71089412 40.9275743 3.07877647 42.8533463 3.07877647"></polygon>
                            <polygon id="Fill-22" fill="#797979" points="14.5670515 4.18238824 14.5670515 9.62685882 15.5528162 8.98591765 15.5528162 2.37391765 11.2418971 4.72591765 11.2418971 5.99685882"></polygon>
                        </g>
                        <g id="Group" transform="translate(11.000000, 0.000000)" fill="#797979">
                            <path d="M0.842267899,2.58948703 C0.218512898,2.37049042 0.0417160988,1.87380214 0.0417160988,1.39388388 L0.0417160988,1.26909526 C0.0417160988,0.452297069 0.505559388,0 1.43771555,0 L1.89857911,0 C2.63556353,0 3.08997103,0.314191094 3.08997103,1.07180101 C3.08997103,1.24689966 3.00057939,1.40769448 2.75177266,1.40769448 C2.51687129,1.40769448 2.41258105,1.24689966 2.41258105,1.07180101 C2.41258105,0.773886697 2.19953097,0.641699549 1.89857911,0.641699549 L1.43771555,0.641699549 C0.931659539,0.641699549 0.717119603,0.832088501 0.717119603,1.26909526 L0.717119603,1.39388388 C0.717119603,1.6917982 0.894413022,1.87380214 1.11640226,1.95370631 L2.42847289,2.42277339 C2.98717064,2.6180947 3.27272727,3.02600056 3.27272727,3.65240981 L3.27272727,3.90790586 C3.27272727,4.72519729 2.80987722,5.25 1.87821769,5.25 L1.18741895,5.25 C0.453414264,5.25 0,4.93679538 0,4.17770575 C0,4.00359357 0.0859152987,3.843292 0.337205132,3.843292 C0.571113257,3.843292 0.672423783,4.00359357 0.672423783,4.17770575 C0.672423783,4.48449831 0.88845358,4.60830045 1.18741895,4.60830045 L1.87821769,4.60830045 C2.38427369,4.60830045 2.60427645,4.34540586 2.60427645,3.90790586 L2.60427645,3.65240981 C2.60427645,3.33279312 2.45876673,3.15621477 2.23677749,3.0763106 L0.842267899,2.58948703 Z" id="Fill-24"></path>
                            <path d="M6.22195693,4.6280307 L6.22195693,3.31047737 L5.15227878,3.31047737 C4.83994515,3.31047737 4.68661773,3.45970994 4.68661773,3.6960783 L4.68661773,4.25044225 C4.68661773,4.4717872 4.83994515,4.6280307 5.15227878,4.6280307 L6.22195693,4.6280307 Z M5.68815036,1.4 C6.4418811,1.4 6.90909091,1.86722815 6.90909091,2.54077784 L6.90909091,4.9094693 C6.90909091,5.08524324 6.80067758,5.25 6.55752198,5.25 L5.15227878,5.25 C4.45172219,5.25 4,4.93200442 4,4.25044225 L4,3.68005333 C4,3.00049428 4.45172219,2.68950963 5.15227878,2.68950963 L6.22195693,2.68950963 L6.22195693,2.54879032 C6.22195693,2.17771202 6.00048399,2.02297086 5.68815036,2.02297086 L4.7026216,2.02297086 C4.51315641,2.02297086 4.3608615,1.93333117 4.3608615,1.71198621 C4.3608615,1.49014048 4.51315641,1.4 4.7026216,1.4 L5.68815036,1.4 Z" id="Fill-26"></path>
                            <path d="M11.6807576,2.72199387 C11.6807576,2.28607991 11.4678722,2.02462982 10.9598269,2.02462982 L10.5248002,2.02462982 L10.5248002,4.91532423 C10.5248002,5.090771 10.433784,5.25 10.1823324,5.25 C9.93448032,5.25 9.83883616,5.090771 9.83883616,4.91532423 L9.83883616,2.02462982 L8.6844214,2.02462982 L8.6844214,4.91532423 C8.6844214,5.090771 8.59494783,5.25 8.34401046,5.25 C8.09255887,5.25 8,5.090771 8,4.91532423 L8,1.73418432 C8,1.55234874 8.10078632,1.4 8.34401046,1.4 L10.9598269,1.4 C11.9070126,1.4 12.3636364,1.90815675 12.3636364,2.72199387 L12.3636364,4.91532423 C12.3636364,5.090771 12.2741628,5.25 12.0227112,5.25 C11.7640606,5.25 11.6807576,5.090771 11.6807576,4.91532423 L11.6807576,2.72199387 Z" id="Fill-28"></path>
                            <path d="M14.2183832,5.25 C13.5128026,5.25 13.0909091,4.98516477 13.0909091,4.38699411 C13.0909091,4.20127177 13.1688451,4.0522115 13.4333079,4.0522115 C13.6967316,4.0522115 13.7575216,4.20127177 13.7725893,4.38699411 C13.7809024,4.55100865 13.940931,4.67257236 14.2183832,4.67257236 L14.8392732,4.67257236 C15.2086899,4.67257236 15.3224764,4.50083949 15.3224764,4.28665581 L15.3224764,4.03725724 C15.3224764,3.86648916 15.2258358,3.77338679 15.0408677,3.72273525 L13.8338989,3.41014284 C13.3725178,3.28906152 13.136112,2.99672973 13.136112,2.53266508 L13.136112,2.3623794 C13.136112,1.70632126 13.5346247,1.4 14.302554,1.4 L14.7322411,1.4 C15.4393804,1.4 15.8633522,1.66290565 15.8633522,2.2620411 C15.8633522,2.44776344 15.7864554,2.59682371 15.5230317,2.59682371 C15.2632451,2.59682371 15.1946614,2.44776344 15.1775155,2.2620411 C15.1697219,2.09754417 15.0159282,1.97694524 14.7395152,1.97694524 L14.302554,1.97694524 C13.9269025,1.97694524 13.8115573,2.14819571 13.8115573,2.3623794 L13.8115573,2.53266508 C13.8115573,2.68992607 13.9050805,2.79701792 14.0936856,2.84718707 L15.2928607,3.15350833 C15.7615159,3.27507205 16,3.55823832 16,4.03725724 L16,4.28665581 C16,4.94319634 15.5931741,5.25 14.8392732,5.25 L14.2183832,5.25 Z" id="Fill-30"></path>
                            <path d="M17.7540363,3.92898902 C17.7540363,4.36539443 17.9612947,4.62635308 18.4545299,4.62635308 L19.3378692,4.62635308 L19.3378692,1.73467577 C19.3378692,1.56119479 19.417584,1.4 19.6686855,1.4 C19.9038441,1.4 20,1.56119479 20,1.73467577 L20,4.91827291 C20,5.09715982 19.9038441,5.25 19.6686855,5.25 L18.4545299,5.25 C17.5328279,5.25 17.0909091,4.74233469 17.0909091,3.92898902 L17.0909091,1.73467577 C17.0909091,1.56119479 17.1805882,1.4 17.4212272,1.4 C17.6733251,1.4 17.7540363,1.56119479 17.7540363,1.73467577 L17.7540363,3.92898902 Z" id="Fill-32"></path>
                            <path d="M23.3380273,2.72199387 C23.3380273,2.28607991 23.1316593,2.02462982 22.6366752,2.02462982 L21.7543772,2.02462982 L21.7543772,4.91532423 C21.7543772,5.090771 21.6721291,5.25 21.4223939,5.25 C21.1876129,5.25 21.0909091,5.090771 21.0909091,4.91532423 L21.0909091,1.73418432 C21.0909091,1.55234874 21.1876129,1.4 21.4223939,1.4 L22.6366752,1.4 C23.558851,1.4 24,1.90815675 24,2.72199387 L24,4.91532423 C24,5.090771 23.9127672,5.25 23.6695121,5.25 C23.41878,5.25 23.3380273,5.090771 23.3380273,4.91532423 L23.3380273,2.72199387 Z" id="Fill-34"></path>
                            <path d="M26.4700263,2.02670415 C25.9761331,2.02670415 25.755076,2.36219255 25.755076,2.82607168 L25.755076,3.85811665 C25.755076,4.29543219 25.9537286,4.55614898 26.4466261,4.55614898 L27.3388203,4.55614898 L27.3388203,2.02670415 L26.4700263,2.02670415 Z M28,5.5813071 C28,6.38952916 27.537473,7 26.6149083,7 L25.7924167,7 C25.6226409,7 25.4673035,6.91883345 25.4673035,6.68713985 C25.4673035,6.46872804 25.6226409,6.37526353 25.7924167,6.37526353 L26.6149083,6.37526353 C27.1102951,6.37526353 27.3388203,6.04764582 27.3388203,5.5813071 L27.3388203,5.18137737 L26.4466261,5.18137737 C25.5255551,5.18137737 25.0909091,4.67322558 25.0909091,3.85811665 L25.0909091,2.82607168 C25.0909091,2.01243851 25.5494531,1.4 26.4700263,1.4 L27.6624399,1.4 C27.9039099,1.4 28,1.56036543 28,1.73499649 L28,5.5813071 Z" id="Fill-36"></path>
                        </g>
                    </g>
                </g>
            </g>
        </g>
    </g>
</svg>