<?xml version="1.0" encoding="UTF-8"?>
<svg width="47px" height="29px" viewBox="0 0 47 29" version="1.1" xmlns="http://www.w3.org/2000/svg" xmlns:xlink="http://www.w3.org/1999/xlink">
    <!-- Generator: Sketch 57.1 (83088) - https://sketch.com -->
    <title>lg-1</title>
    <desc>Created with Sketch.</desc>
    <g id="Page-1" stroke="none" stroke-width="1" fill="none" fill-rule="evenodd">
        <g id="Onze-producten" transform="translate(-527.000000, -1745.000000)" fill="#797979" fill-rule="nonzero">
            <g id="Group-8" transform="translate(193.000000, 855.000000)">
                <g id="Group-6" transform="translate(1.000000, 878.000000)">
                    <g id="lg-1" transform="translate(333.000000, 12.000000)">
                        <path d="M14.2272674,0 C6.36110814,0 0,6.50536248 0,14.5092231 C0,22.5128275 6.36110814,29 14.2272674,29 C22.0755901,29 28.4361958,22.5130837 28.4361958,14.5092231 C28.4361958,6.50536248 22.0755901,0 14.2272674,0 Z M8.99513598,7.45559835 C9.92690605,7.45559835 10.6973937,8.24135555 10.6973937,9.19133523 C10.6973937,10.1597611 9.92690605,10.9457745 8.99513598,10.9457745 C8.0452284,10.9453503 7.27531895,10.1600681 7.27504169,9.19133523 C7.27504169,8.24135555 8.04552938,7.45559835 8.99513598,7.45559835 L8.99513598,7.45559835 Z M15.6966454,21.4895754 L13.6899106,21.4895754 L13.6899106,7.82119194 L15.0158428,7.82119194 L15.0158428,20.1191759 L17.7033802,20.1191759 L17.7033802,21.4898316 L15.6966454,21.4898316 L15.6966454,21.4895754 Z M15.6966454,25.820335 C20.7315702,25.1442303 24.7096179,21.0325194 25.318572,15.8796226 L17.7033802,15.8796226 L17.7033802,14.4541407 L26.5369826,14.4541407 C26.5369826,20.8680407 21.8067861,26.2223086 15.6966454,26.9898758 C15.2127983,27.0449582 14.7111146,27.062892 14.2272674,27.062892 C12.3458907,27.062892 10.5717844,26.6424722 8.99513598,25.8936074 C4.80229625,23.8834832 1.8816279,19.5342774 1.8816279,14.5092231 C1.8816279,9.48391257 4.80229625,5.13496298 8.99513598,3.12483877 C10.5001871,2.41209781 12.1846083,1.9919342 13.9584634,1.93710797 L13.9584634,3.10664876 C12.2257053,3.14183182 10.5254032,3.59251173 8.99513598,4.42222203 C5.44742581,6.34088379 3.02844116,10.1418273 3.02844116,14.5092231 C3.02844116,18.8766189 5.44742581,22.6775624 8.99513598,24.595968 C10.5541991,25.4365514 12.3280542,25.9115412 14.2272674,25.9115412 C14.7111146,25.9115412 15.2127983,25.874905 15.6966454,25.820335 L15.6966454,25.820335 Z M29.3863048,19.9365072 L29.3863048,9.99553863 L32.5938649,9.99553863 L32.5938649,17.6156157 L36.9839113,17.6156157 L36.9839113,19.9365072 L29.3863048,19.9365072 Z M47,19.9728873 L44.9216679,19.9728873 L44.8136438,18.9860152 C44.2762871,19.6254837 43.3980266,20.2098698 41.8573024,20.2098698 C39.3667205,20.2098698 37.1268547,18.5655953 37.1268547,15.093353 C37.1268547,11.9139442 39.08008,9.73959751 42.2512133,9.73959751 C44.5986007,9.73959751 46.4802286,10.9821545 46.8741394,13.4308886 L43.828113,13.4308886 C43.594982,12.6084951 43.0219522,12.1698853 42.179616,12.1698853 C40.9255324,12.1698853 40.3341636,13.3394261 40.3341636,15.0754192 C40.3341636,16.4824549 40.7639988,17.7800944 42.3768227,17.7800944 C43.0219522,17.7800944 43.8640372,17.3232945 44.0253196,16.6287436 L42.6097024,16.6287436 L42.6097024,14.4905207 L46.9997488,14.4905207 L46.9997488,19.9728873 L47,19.9728873 Z" id="Shape"></path>
                    </g>
                </g>
            </g>
        </g>
    </g>
</svg>