<svg height="42" viewBox="0 0 180 42" width="180" xmlns="http://www.w3.org/2000/svg" xmlns:xlink="http://www.w3.org/1999/xlink"><linearGradient id="a" x1="8.914597%" x2="67.289117%" y1="0%" y2="69.886556%"><stop offset="0" stop-color="#fd4e8b"/><stop offset="1" stop-color="#fd8262"/></linearGradient><mask id="b" fill="#fff"><path d="m0 .11748649h37.9657424v41.88251351h-37.9657424z" fill="#fff" fill-rule="evenodd"/></mask><g fill="none" fill-rule="evenodd"><g fill="#fffffe"><path d="m71.5783251 17.5151236c-1.3536946 0-2.4017734.2880883-3.0112315.7989425-.5745813.4795889-.8453202 1.1819436-.8453202 2.1723867v10.5135472h-3.7217734v-17h3.7217734v.7034714c1.0823645-.4477651 2.3680788-.7034714 3.8565517-.7034714h1.4216749v3.5151236z"/><path d="m79.7965368 24.2575041c-1.1711712 0-2.0755821.1914943-2.5780976.5426601-.2673452.1914943-.5352755.4477504-.5352755 1.0869951 0 .6068637.2679303.8949425.5352755 1.0546141.5025155.3511658 1.4069264.5426601 2.5780976.5426601h.7037557c1.3396513 0 2.3435123-.2869622 2.979408-.798358.5364455-.4477504.8371358-1.182463.8371358-2.1728735v-.2556979zm.7037557-10.2575041c2.2762373 0 4.0850591.5750411 5.3907804 1.6620361 1.3718264 1.1500821 2.1089271 2.81156 2.1089271 4.8247619v10.513202h-3.6831637v-.7040066c-1.0711361.4801314-2.3435123.7040066-3.8165438.7040066h-.7037557c-1.974377 0-3.5486136-.4153695-4.7209547-1.2142857-.6698257-.4477504-1.2051012-1.0227915-1.5397216-1.6938588-.3352053-.670509-.5358605-1.40578-.5358605-2.2046962 0-.8307389.2006552-1.5654516.5358605-2.2365189.3346204-.6716256.8698959-1.2466667 1.5397216-1.6944171 1.1723411-.7983579 2.7465777-1.2137274 4.7209547-1.2137274h4.5202995v-.2556979c0-.9909688-.3006903-1.6933005-.8371358-2.1728735-.6358957-.5108375-1.6397567-.7989163-2.979408-.7989163h-.03393c-1.2384463 0-2.2089622.2556979-2.8454429.70289-.5358605.3841051-.8377208.9591461-.9377559 1.7898851l-3.6498187-.3835468c.1673102-1.7580624 1.004446-3.228046 2.3774424-4.2184565 1.2723763-.9262069 2.979993-1.40578 5.0555751-1.40578z"/><path d="m94.5303705 18.0940931c-.5704737.4878834-.8390009 1.2023855-.8390009 2.2105264v4.0961757c0 1.0075728.2685272 1.755017.8390009 2.2105263.6038931.5202574 1.6439963.8121923 2.9526267.8121923 1.342636 0 2.3833255-.2919349 2.9866318-.8121923.57106-.4555093.839001-1.2029535.839001-2.2105263v-4.0961757c0-1.0081409-.267941-1.722643-.839001-2.2105264-.6033063-.5196895-1.6439958-.8127603-2.9866318-.8127603-1.3086304 0-2.3487336.2930708-2.9526267.8127603zm6.7782595 12.9059069v-.716206c-1.074108.4884514-2.3487332.716206-3.8256328.716206-2.2478893 0-4.0601548-.5526316-5.4027908-1.6908368-1.3748828-1.1700114-2.0802064-2.8602802-2.0802064-4.908368v-4.0961757c0-2.0480879.7053236-3.7383567 2.0802064-4.9083681 1.342636-1.1058311 3.1549015-1.6908368 5.4027908-1.6908368 1.4768996 0 2.7515248.2601288 3.8256328.715638v-4.4210526h3.69137v21z"/><path d="m145.796537 24.2575041c-1.171171 0-2.075582.1914943-2.577513.5426601-.267345.1914943-.535275.4477504-.535275 1.0869951 0 .6068637.26793.8949425.535275 1.0546141.501931.3511658 1.406342.5426601 2.577513.5426601h.703756c1.339651 0 2.343512-.2869622 2.979992-.798358.535861-.4477504.837136-1.182463.837136-2.1728735v-.2556979zm.703756-10.2575041c2.276822 0 4.085059.5750411 5.39078 1.6620361 1.373581 1.1500821 2.108927 2.81156 2.108927 4.8247619v10.513202h-3.682579v-.7040066c-1.072306.4801314-2.344097.7040066-3.817128.7040066h-.703756c-1.974377 0-3.548029-.4153695-4.72037-1.2142857-.669241-.4477504-1.205686-1.0227915-1.539721-1.6938588-.335206-.670509-.536446-1.40578-.536446-2.2046962 0-.8307389.20124-1.5654516.536446-2.2365189.334035-.6716256.87048-1.2466667 1.539721-1.6944171 1.172341-.7983579 2.745993-1.2137274 4.72037-1.2137274h4.520884v-.2556979c0-.9909688-.301275-1.6933005-.837136-2.1728735-.63648-.5108375-1.640341-.7989163-2.979992-.7989163h-.033346c-1.239031 0-2.209547.2556979-2.846612.70289-.535276.3841051-.836551.9591461-.936586 1.7898851l-3.650404-.3835468c.167895-1.7580624 1.004446-3.228046 2.378027-4.2184565 1.272377-.9262069 2.979993-1.40578 5.055575-1.40578z"/><path d="m162.885788 14c4.66522 0 6.376642 2.3961905 6.979948 3.803087l-3.422842 1.3097537c-.200516-.479573-.537054-.8312972-1.039517-1.0869951-.637899-.3187848-1.4769-.5108374-2.517589-.5108374h-.369371c-1.442308 0-2.583256.2238752-3.221154.607422-.43621.2556979-.603893.5426601-.603893 1.0222332 0 .4477504.167683.7347126.603893.9904105.637898.4153694 1.778846.607422 3.221154.607422 2.147631 0 3.893058.3829885 5.168269 1.1506404 1.510319.8943842 2.315314 2.3001642 2.315314 3.994023 0 1.6620361-.804995 3.0678161-2.315314 3.9627586-1.275211.7665353-3.020638 1.1500821-5.168269 1.1500821h-.402205c-4.664048 0-6.375469-2.3643678-6.980535-3.8025287l3.422843-1.310312c.202275.479573.57106.8625616 1.074695 1.1188177.603893.3193432 1.442894.4784565 2.482997.4784565h.402205c1.41006 0 2.551008-.2238752 3.18832-.6068637.43621-.2562562.603893-.5426601.603893-.9904105 0-.4795731-.167683-.7670936-.603893-1.0227915-.637312-.3829885-1.77826-.6068637-3.18832-.6068637-2.181051 0-3.925892-.3829885-5.167097-1.1188177-1.510905-.893826-2.34932-2.3319869-2.34932-3.994023 0-1.6938588.838415-3.0996388 2.34932-3.9934647 1.241205-.7358292 2.986046-1.1511987 5.167097-1.1511987z"/><path d="m180 13.7054146v3.5759182h-3.638369v7.1194624c0 1.0075728.28721 1.755017.797497 2.2105263.606766.5202574 1.564877.8121923 2.840872.8121923v3.5764862c-2.170529 0-3.893791-.5526316-5.139113-1.6908368-1.30834-1.1700114-2.010472-2.8602802-2.010472-4.908368v-7.1194624h-1.850415v-3.5759182h1.850415v-3.7054146h3.511216v3.7054146z"/><path d="m62 13.7054146v3.5759182h-3.6385945v7.1194624c0 1.0075728.2872281 1.755017.797546 2.2105263.6068042.5202574 1.5649749.8121923 2.8410485.8121923v3.5764862c-2.170106 0-3.8945901-.5526316-5.1394311-1.6908368-1.3084217-1.1700114-2.0111545-2.8602802-2.0111545-4.908368v-7.1194624h-1.8494144v-3.5759182h1.8494144v-3.7054146h3.5119911v3.7054146z"/><path d="m134.329712 24.9920194c-.050004.4137082-.1506.7632107-.305318 1.058557-.001176.0022332-.002353.0055831-.004118.0083746-.072947.1379028-.160012.2618477-.257667.3763014-.008236.0100496-.015295.0212158-.024708.0307071-.103538.1172452-.219429.2227659-.350616.3165621-.638873.4449736-1.612479.7001215-2.853165.7017964-1.342458-.0016749-2.383716-.2875299-2.987881-.7983841-.572398-.4477652-.842419-1.1819436-.842419-2.1723867v-4.0270944c0-.9904431.270021-1.6933561.842419-2.1723867.604165-.5102959 1.645423-.7972675 2.987881-.7989425.285317.0005584.553573.0173077.810064.0435483.110597.0117245.211781.0312654.317084.0480147.124127.0189826.248254.0385234.364734.0642057.149424.034057.292376.073697.427092.1178036.04471.0139577.088831.0284738.131187.0435482.160601.0586226.312378.1217117.449447.1931755.242372.1233866.451212.2691057.628285.4399487.009412.0094913.02059.0167493.030002.0267989.044121.0441066.07883.0943545.118245.1418109.073535.0937962.144717.188709.202957.2970213.004706.0089329.010001.0184242.014707.0273572.152365.2931131.252372.6392657.301788 1.0490656l3.670288-.383001c-.06177-.6493153-.217664-1.2589905-.456506-1.820651l.002941-.0005583c-.074712-.1730763-.165895-.3606686-.277669-.5566357-.011765-.0217741-.025296-.0424316-.03765-.0636474-.072358-.1239449-.154718-.2506814-.243548-.3790929-.034121-.048573-.067653-.097146-.102361-.1446024-.09589-.1300864-.200604-.2601728-.315907-.3902591-.031179-.0346153-.064123-.0675556-.09589-.1010543-.100596-.1088705-.209429-.2160662-.32532-.3227035-.027061-.0245657-.053534-.0496897-.081183-.073697-.64358-.5694768-1.513648-1.0859142-2.686681-1.4125259-.010001-.0027915-.019413-.0050248-.029414-.0078163-.401208-.1099872-.83536-.1982003-1.310103-.2579395-.022355-.0027916-.045886-.0039082-.068241-.0066998-.44474-.0535978-.916542-.0865381-1.429523-.0865381-.00353 0-.005883.0005583-.008236.0005583-.00353 0-.006471-.0005583-.009413-.0005583h-.033532c-2.289003 0-4.107969.5745016-5.421013 1.6615324-.031179.025124-.048239.0591809-.074712.0870965-1.285395 1.14677-1.996039 2.7731288-1.996039 4.7378239v4.0270944c0 1.9646951.710644 3.5910539 1.996039 4.7372656.026473.0279156.043533.0619725.074712.0876548.664758.549936 1.461291.9664357 2.381363 1.2461493.102361.0312654.22237.0441065.327673.0720221.362381.0949128.727704.1859174 1.12597.2395152.13707.017866.291788.0150744.433564.0279156.375323.0357318.747117.0759302 1.152443.0759302h.033532c.002942 0 .005883-.0005583.008824-.0005583.002942 0 .005295.0005583.008825.0005583.522982 0 1.004784-.0334986 1.456584-.0882131.009413-.0011166.019414-.0016749.029414-.0027915 3.566162-.4405071 4.979803-2.4375842 5.517492-3.7110907l-.00353-.0016749c.239431-.5611022.395325-1.1707774.457095-1.820651z"/><path d="m110.684744 20.4862397c0-.9904105.268631-1.6927422.837496-2.1723152.602809-.5108375 1.641045-.7989163 2.980686-.7989163 1.306867 0 2.345104.2880788 2.948498.7989163.56945.479573.83691 1.1819047.83691 2.1723152v.2556979h-7.60359zm7.898557 5.4009196c-.202497.479573-.570621.8625616-1.073352 1.1188177-.602224.3193432-1.439719.4784565-2.477955.4784565h-.384511-.144557c-1.339641 0-2.377877-.2869622-2.980686-.7989163-.568865-.4471921-.837496-1.1819047-.837496-2.1723152v-.2556979h11.288334v-3.7712644c0-2.0126436-.703472-3.6746798-2.076472-4.8247619-1.340227-1.0864367-3.148654-1.6614778-5.39368-1.6614778-2.276629 0-4.086227.5750411-5.426453 1.6614778-1.339056 1.1500821-2.076473 2.8121183-2.076473 4.8247619v4.0269623c0 2.0132019.737417 3.6746798 2.076473 4.8247619 1.340226 1.1188177 3.149824 1.6614778 5.426453 1.6614778h.144557v.0005583h.384511c4.655677 0 6.364026-2.3643678 6.968006-3.8025287z"/></g><path d="m34.8756515 23.3199892-23.9273333 13.6176486v-8.4414324l9.3831212-5.3408108 11.1011818-6.3175946 3.4430303 1.9592432c.8290909.4722163 1.3242424 1.3173244 1.3242424 2.2617568 0 .9438649-.4951515 1.788973-1.3242424 2.2611892zm-29.13621211 16.5826216c-.82909091.4716487-1.81939394.4716487-2.6490606 0-.82909091-.4722162-1.32424243-1.3173243-1.32424243-2.2617567v-27.2358649l7.41633334 4.2215676v1.2753243 13.5994865 8.4414324zm5.53878791-13.604027-.3299091.1872973v-10.584-.2707297l9.535697 5.4276486-2.1723334 1.2361622-7.0334545 4.003054zm-8.18784851-24.08416218c.41512121-.23554054.86939394-.35359459 1.32424242-.35359459.45484849 0 .91027273.11805405 1.32481818.35359459l23.92733331 13.61821618-7.4163333 4.221-.6891818-.3921892-19.79512124-11.26621617v-3.91905405c0-.94443243.49515152-1.78954054 1.32424243-2.26175676zm32.66790911 15.07516218-29.13621214-16.58205407c-1.38181818-.78664865-3.0319394-.78664865-4.41433334-.00056757-1.38239393.78664865-2.2080303 2.19535135-2.2080303 3.76921622v33.16467572c0 1.5732973.82563637 2.9825675 2.20745455 3.7692162.69148485.3933243 1.44975757.5902702 2.2080303.5902702.75769697 0 1.51654545-.1969459 2.20687879-.5902702l29.13621214-16.5826217c1.3829697-.786081 2.2074545-2.1953513 2.2074545-3.7686486 0-1.5738649-.8244848-2.9825676-2.2074545-3.7692162z" fill="url(#a)" mask="url(#b)"/></g></svg>