<svg height="20" viewBox="0 0 20 20" width="20" xmlns="http://www.w3.org/2000/svg" xmlns:xlink="http://www.w3.org/1999/xlink"><linearGradient id="a" x1="0%" x2="100%" y1="0%" y2="100%"><stop offset="0" stop-color="#fd4e8b"/><stop offset="1" stop-color="#fd8262"/></linearGradient><path d="m10 0c-5.514 0-10 4.486-10 10s4.486 10 10 10 10-4.486 10-10-4.486-10-10-10zm0 18.667c-4.779 0-8.667-3.888-8.667-8.667s3.888-8.667 8.667-8.667 8.667 3.888 8.667 8.667-3.888 8.667-8.667 8.667zm-.667-3.334h1.334v-1.333h-1.334zm.667-10.666c-1.51 0-3.125 1.012-3.33 3.273l1.327.12c.178-1.96 1.7-2.06 2.003-2.06.469 0 2 .123 2 1.708 0 .837-.447 1.243-1.174 1.837-.665.542-1.493 1.217-1.493 2.455v.667h1.334v-.667c0-.577.362-.9 1.001-1.422.742-.605 1.665-1.358 1.665-2.87 0-1.819-1.34-3.041-3.333-3.041z" fill="url(#a)"/></svg>